# xmcd
#
# Track frame offsets:
#	150
#	40734
#	91367
#	145158
#	191739
#	217339
#	243613
#	286031
#	328039
#
# Disc length: 4698 seconds
#
# Revision: 1
# Processed by: cddbd v1.5.2PL0 Copyright (c) Steve Scherf et al.
# Submitted via: audiograbber 1.83.01
#
DISCID=89125809
DTITLE=Grateful Dead - 80-11-28 Lakeland Civic Centre Arena, Lakeland FL
DYEAR=1900
DGENRE=
TTITLE0=To Lay Me Down
TTITLE1=Let It Grow
TTITLE2=Terrapin Station
TTITLE3=Drums
TTITLE4=Space
TTITLE5=Not Fade Away
TTITLE6=Black Peter
TTITLE7=Sugar Magnolia
TTITLE8=US Blues
EXTD=
EXTT0=
EXTT1=
EXTT2=
EXTT3=
EXTT4=
EXTT5=
EXTT6=
EXTT7=
EXTT8=
PLAYORDER=
